<?xml version="1.0" encoding="UTF-8"?>
<svg id="Ebene_1" data-name="Ebene 1" xmlns="http://www.w3.org/2000/svg" viewBox="0 0 201.35 201.35">
  <defs>
    <style>
      .cls-1 {
        fill: #ffed00;
      }

      .cls-1, .cls-2 {
        stroke: #1d1d1b;
        stroke-miterlimit: 10;
      }

      .cls-2 {
        fill: #00983a;
      }
    </style>
  </defs>
  <rect class="cls-2" x=".5" y=".5" width="200.35" height="200.35"/>
  <path class="cls-1" d="M65.58,36.87c-6.18-.39-12.42.04-18.49,1.29-1.95.4-3.94.91-5.51,2.12s-2.64,3.29-2.11,5.2c11.94,1.91,24.42,4.05,34.02,11.39,1.54,1.17,3.03,2.54,3.75,4.33,1.63,4.06-1.2,8.5-4.31,11.58-12.01,11.92-30.74,16.58-46.94,11.66,1.12-.02,2.24-.04,3.36-.06"/>
  <path class="cls-1" d="M107.01,39.44c-.87,7.12,2.46,14,3.74,21.05,2.01,11.07-1.05,22.75,2.04,33.57"/>
  <path class="cls-1" d="M135.96,44.76c4.37,17.11,7.03,34.64,7.95,52.27"/>
  <path class="cls-1" d="M117.89,41.05c11.76,1.24,23.77-1.66,35.4.43"/>
  <path class="cls-1" d="M166.33,74.39c7.7-.77,15.47-.84,23.18-.19"/>
  <path class="cls-1" d="M9.68,126.71c-.46,3.84,1.67,7.44,3.24,10.97,2.55,5.71,3.78,12.01,3.56,18.26"/>
  <path class="cls-1" d="M7.02,122.5c7.36-2.13,15.16-2.73,22.75-1.73"/>
  <path class="cls-1" d="M7.52,138.71c10.05.31,19.41,4.88,28.42,9.36"/>
  <path class="cls-1" d="M15.79,154.75c9.22,3.03,18.78,5.07,28.44,6.05"/>
  <path class="cls-1" d="M57.94,157.68c.89-10.52,1.78-21.03,2.67-31.55.09-1.04.41-2.35,1.45-2.5,0,6.1-.32,14.56,4.02,18.85.53.53,1.18,1.04,1.93,1.05.56,0,1.08-.27,1.57-.53,7.54-4.07,15.08-8.15,22.61-12.22,1.23-.66,2.52-1.4,3.15-2.64-1.28,1.25-1.63,3.14-1.88,4.9-1.03,7.29-1.47,14.67-1.3,22.04"/>
  <path class="cls-1" d="M105.84,149.95c6.58-7.92,13.42-15.62,20.52-23.08,9.19,10.18,14.29,21.32,18.52,34.36"/>
  <path class="cls-1" d="M108.34,142.02c4.87-1.69,9.96,1.69,15.1,2.17,4.22.4,9.13-.99,12.26,1.86"/>
  <path class="cls-1" d="M153.94,132.39c-.6,4.68-.3,9.48.88,14.05.82,3.17,2.04,6.21,3.19,9.28,1.47,3.91,2.83,7.9,3.34,12.05"/>
  <path class="cls-1" d="M140.99,132.32c3.53-4.53,9.27-7.09,15.01-7.28s11.43,1.85,16.13,5.14c1.57,1.1,3.07,2.37,4.01,4.04,1.45,2.57,1.35,5.7,1.22,8.65-.04.95-.09,1.93-.44,2.82-.66,1.65-2.26,2.7-3.83,3.53-4.52,2.37-9.59,3.66-14.69,3.76-.86.02-1.75,0-2.55-.34-.7-.3-1.28-.81-1.84-1.32-1.83-1.65-3.67-3.3-5.5-4.96"/>
</svg>